<svg xmlns="http://www.w3.org/2000/svg" width="1021" height="653.915" viewBox="0 0 1021 653.915"><g id="Group_150" data-name="Group 150" transform="translate(-874 -262.003)"><g id="task" transform="translate(721 -30.137)"><path id="Path_121" fill="#dce6ef" d="M1110.935,828.162c-1.992.026-14.246-16.357-16.594-18.626-19.193-18.573-30.709-38.98-39.363-61.181-6.6-16.924-11.516-34.9-16.885-53.873-3.628-12.8-9.471-27.095-22.135-31.131-12.321-3.918-25.591,4.208-33.163,14.682s-11.4,23.177-17.874,34.363c-11.753,20.275-32.556,28.77-49.757,10.949-24.562-25.459-35.629-60.178-51.208-91.23-11.3-22.544-20.776-48.939-35.023-69.729-21.726-31.685-51.525-58.714-91.138-58.714-25.116,3.8-47.238,26.053-62.223,53.847s-23.718,60.864-31.158,93.842c-6.239,27.662-11.714,55.627-16.779,83.738-9.419-33.875-19.22-67.5-29.825-100.543-11.49-35.788-24.179-71.444-41.8-100.082s-40.959-49.757-64.386-49.612c-36.1,6.991-59.4,42.634-74.675,82.128-10.012,25.894-14.867,57.263-21.963,84.622C385.22,689.3,380.1,730.3,361.344,763.287c-13.125,23.085-33.308,17.2-46.908-3.548-7.506-11.45-12.8-25.063-21.2-35.511s-21.66-17.254-32.318-10.672c-10.962,6.767-14.247,23.9-15.724,38.927-2.19,22.306-4.1,43.386-7.7,63.595q-1.167,6.609-2.612,13.072H611.832c-.264,1.609-.528,3.232-.778,4.841Z" data-name="Path 121" opacity=".31" transform="translate(26.13 61.501)"/><path id="Path_122" fill="#4caf50" d="M801.7,735.117c-.976,19.431-22.122,53.4-41.552,52.422s-29.8-36.54-28.81-55.97,21.673-116.676,41.1-115.687S802.674,715.687,801.7,735.117Z" data-name="Path 122" opacity=".77" transform="translate(184.539 103.311)"/><path id="Path_123" d="M754.462,783.563h-.026a.5.5,0,0,1-.475-.541l9.8-157.477a.483.483,0,0,1,.541-.475.5.5,0,0,1,.475.541l-9.8,157.477A.527.527,0,0,1,754.462,783.563Z" data-name="Path 123" transform="translate(191.779 106.244)"/><path id="Path_124" fill="#4caf50" d="M753.541,718.846a135.027,135.027,0,0,0-9.828,30.551c-1.029,5.382-1.688,11.226.752,16.146,2.665,5.369,8.574,8.5,14.484,9.471,14.444,2.374,28.889-6.477,37.358-18.415s12.136-26.541,15.5-40.774c2.651-11.213,5.25-22.6,10.25-33.044,2.137-4.485,14.682-21.779,8.746-26.264-8.113-6.371-31.593.554-46.631,16.99A174.825,174.825,0,0,0,753.541,718.846Z" data-name="Path 124" opacity=".77" transform="translate(188.214 115.532)"/><path id="Path_125" d="M755.165,772.249a.5.5,0,0,1-.132-.013.513.513,0,0,1-.369-.62c.172-.686,17.966-68.476,59.69-107.073a.518.518,0,0,1,.725.026.506.506,0,0,1-.026.725c-41.513,38.386-59.215,105.9-59.387,106.572A.5.5,0,0,1,755.165,772.249Z" data-name="Path 125" transform="translate(191.999 118.798)"/><path id="Path_126" fill="#4caf50" d="M837.2,693.294c-1.491,2.678-4.287,4.5-6.833,5.923-3.126,1.768-6.464,3.311-9.7,4.815a112.222,112.222,0,0,0-12.373,6.4,41.835,41.835,0,0,0-7.585,6.042,96.06,96.06,0,0,1,12.03-20.446c6.147-7.915,12.453-11.925,18.771-11.925.145,0,.29,0,.435.013a7.056,7.056,0,0,1,4.511,1.438C838.608,687.385,838.516,690.92,837.2,693.294Z" data-name="Path 126" opacity=".77" transform="translate(206.698 125.083)"/><path id="Path_127" fill="#4caf50" d="M844.085,727.3c-2.493,1.781-5.8,2.229-8.706,2.44-3.588.251-7.268.224-10.817.211a111.954,111.954,0,0,0-13.917.488,42.3,42.3,0,0,0-9.445,2.216,95.582,95.582,0,0,1,19.615-13.336c8.944-4.525,16.357-5.448,22.069-2.744l.4.2a7.081,7.081,0,0,1,3.469,3.232C847.884,722.565,846.288,725.731,844.085,727.3Z" data-name="Path 127" opacity=".77" transform="translate(206.854 134.964)"/><path id="Path_128" fill="#4caf50" d="M826.877,744.942a11.7,11.7,0,0,1-5.474-2.876c-1.9-1.557-3.72-3.285-5.474-4.973a77.745,77.745,0,0,0-7.15-6.279,28.411,28.411,0,0,0-5.738-3.324,65.479,65.479,0,0,1,16.014,2.559c6.569,1.939,10.685,4.96,12.255,8.97.04.092.066.185.106.277a4.9,4.9,0,0,1,.211,3.232C830.992,744.362,828.71,745.193,826.877,744.942Z" data-name="Path 128" opacity=".77" transform="translate(207.442 138.929)"/><path id="Path_129" d="M785.394,765.291a.543.543,0,0,1-.514-.514c0-.422.778-42.212,51.142-77.235a.512.512,0,0,1,.58.844c-49.929,34.719-50.707,75.981-50.707,76.39A.5.5,0,0,1,785.394,765.291Z" data-name="Path 129" transform="translate(201.646 126.152)"/><path id="Path_130" d="M785.4,754.783a.466.466,0,0,1-.224-.053.511.511,0,0,1-.251-.686c.158-.33,16.2-33.664,58.266-33.664a.514.514,0,1,1,0,1.029c-41.394,0-57.184,32.741-57.329,33.07A.5.5,0,0,1,785.4,754.783Z" data-name="Path 130" transform="translate(201.644 136.661)"/><path id="Path_131" d="M828.063,740.732a.529.529,0,0,1-.3-.105c-16.647-12.558-24.839-12.189-24.905-12.175a.517.517,0,0,1-.554-.475.535.535,0,0,1,.475-.554c.343-.04,8.561-.462,25.6,12.387a.522.522,0,0,1,.106.725A.582.582,0,0,1,828.063,740.732Z" data-name="Path 131" transform="translate(207.205 138.905)"/><path id="Path_132" fill="#4caf50" d="M360.333,730.584c-7.321-8.456-16.595-15.737-19.523-26.409-2.137-7.8-.448-16.04.383-24.074s.541-16.924-4.656-23.1c-4.287-5.092-11.054-7.308-17.558-8.706s-13.3-2.282-19.074-5.593c-9.379-5.382-7.506-14.524-12.545-22.544-5.646-9-18.8-20.486-30.063-14.51-11.925,6.332-10.039,25.551-2.111,34.033,5.263,5.633,12,11.028,12.782,18.705,1.161,11.542-12.057,21.937-8.429,32.965,2.691,8.139,12.941,10.936,18.019,17.848,5.013,6.846,4,16.423,1.055,24.377s-7.6,15.3-9.432,23.573c-3.76,16.938,9.537,28.638,24.681,32.424,13.917,3.469,43.927,1.834,43.927,1.834,10.711-3.746,22.583-13.152,28.48-23.441a29.841,29.841,0,0,0,1.623-25.881A43.3,43.3,0,0,0,360.333,730.584Z" data-name="Path 132" transform="translate(30.571 99.521)"/><path id="Path_133" d="M322.3,786.794a.519.519,0,0,1-.514-.488c-5.5-86.759-56.221-166.011-56.735-166.8a.516.516,0,0,1,.871-.554c.514.791,51.38,80.282,56.907,167.291a.514.514,0,0,1-.475.541A.1.1,0,0,1,322.3,786.794Z" data-name="Path 133" transform="translate(35.73 104.214)"/><path id="Path_134" fill="#4caf50" d="M231.067,700.3a5.386,5.386,0,0,1,3.416-1.082h.33c4.762,0,9.537,3.034,14.194,9.01a72.51,72.51,0,0,1,9.089,15.46,30.86,30.86,0,0,0-5.738-4.564,86.08,86.08,0,0,0-9.353-4.841c-2.44-1.134-4.96-2.308-7.321-3.641-1.926-1.082-4.036-2.467-5.171-4.485C229.511,704.365,229.445,701.687,231.067,700.3Z" data-name="Path 134" transform="translate(24.508 129.908)"/><path id="Path_135" fill="#4caf50" d="M224.85,726.352a5.368,5.368,0,0,1,2.625-2.44c.092-.053.2-.092.29-.145,4.314-2.045,9.92-1.346,16.687,2.071a72.592,72.592,0,0,1,14.84,10.091,31.384,31.384,0,0,0-7.136-1.675,82.934,82.934,0,0,0-10.527-.369c-2.691.013-5.474.04-8.179-.158-2.2-.158-4.7-.5-6.582-1.847C225.18,730.692,223.98,728.291,224.85,726.352Z" data-name="Path 135" transform="translate(22.836 137.376)"/><path id="Path_136" fill="#4caf50" d="M233.135,743.4a3.626,3.626,0,0,1,.158-2.44c.026-.066.053-.145.079-.211,1.187-3.034,4.3-5.316,9.273-6.78a49.471,49.471,0,0,1,12.11-1.939,20.885,20.885,0,0,0-4.34,2.519,56.61,56.61,0,0,0-5.408,4.749c-1.332,1.266-2.7,2.586-4.142,3.759a8.924,8.924,0,0,1-4.142,2.177A3.37,3.37,0,0,1,233.135,743.4Z" data-name="Path 136" transform="translate(25.526 140.379)"/><path id="Path_137" fill="#122a13" d="M272.359,760.759a.515.515,0,0,1-.514-.514c0-.317-.62-31.474-38.281-57.659a.512.512,0,1,1,.58-.844c38.136,26.514,38.729,58.186,38.729,58.5a.507.507,0,0,1-.514.514Z" data-name="Path 137" transform="translate(25.639 130.684)"/><path id="Path_138" d="M273.627,752.811a.493.493,0,0,1-.462-.29c-.119-.251-12.03-24.932-43.241-24.932a.515.515,0,0,1,0-1.029c31.883,0,44.046,25.274,44.164,25.525a.511.511,0,0,1-.251.686A1.177,1.177,0,0,1,273.627,752.811Z" data-name="Path 138" transform="translate(24.384 138.633)"/><path id="Path_139" fill="#183719" d="M235.4,742.19a.489.489,0,0,1-.409-.211.512.512,0,0,1,.106-.726c12.914-9.748,19.18-9.405,19.444-9.392a.517.517,0,0,1,.475.554.508.508,0,0,1-.554.475h0c-.066,0-6.213-.264-18.745,9.181A.455.455,0,0,1,235.4,742.19Z" data-name="Path 139" transform="translate(26.133 140.323)"/><path id="Path_140" fill="#030047" d="M739.751,854.7H378.074A14.457,14.457,0,0,1,363.63,840.26V353.5a14.457,14.457,0,0,1,14.444-14.444h108.1v3.957h-108.1A10.505,10.505,0,0,0,367.587,353.5V840.26a10.505,10.505,0,0,0,10.487,10.487H739.751a10.505,10.505,0,0,0,10.487-10.487V353.5a10.505,10.505,0,0,0-10.487-10.487H631.675V339.06H739.751A14.457,14.457,0,0,1,754.2,353.5V840.26A14.466,14.466,0,0,1,739.751,854.7Z" data-name="Path 140" transform="translate(67.217 14.973)"/><path id="Path_141" fill="#f2f2f2" d="M718.747,822.923h-331.5a5.1,5.1,0,0,1-5.092-5.092V363.552a5.1,5.1,0,0,1,5.092-5.092h331.5a5.1,5.1,0,0,1,5.092,5.092V817.831A5.1,5.1,0,0,1,718.747,822.923Z" data-name="Path 141" transform="translate(73.13 21.164)"/><path id="Path_142" fill="#030047" d="M604.165,387.929H455.21V339.188h43.122a31.36,31.36,0,0,1,62.711,0h43.122Zm-145-3.957H600.208V343.145H556.914l.132-2.612c.013-.264.04-.541.04-.818a27.4,27.4,0,1,0-54.8,0c0,.277.026.554.04.818l.132,2.612H459.167v40.827Z" data-name="Path 142" transform="translate(96.441 5.176)"/><path id="Path_143" fill="#030047" d="M516.141,355.082A18.481,18.481,0,1,1,534.622,336.6,18.5,18.5,0,0,1,516.141,355.082Zm0-32.991a14.524,14.524,0,1,0,14.523,14.524A14.542,14.542,0,0,0,516.141,322.091Z" data-name="Path 143" transform="translate(109.988 8.291)"/><path id="Path_144" fill="#d3d3d3" d="M1146.3,801.263H180.7a27.7,27.7,0,0,1-27.7-27.7h0a27.7,27.7,0,0,1,27.7-27.7h965.6a27.7,27.7,0,0,1,27.7,27.7h0A27.7,27.7,0,0,1,1146.3,801.263Z" data-name="Path 144" transform="translate(0 144.792)"/><path id="Path_145" fill="#0b4870" d="M471.888,470.018H414.81V412.94h57.078ZM416.129,468.7h54.44v-54.44h-54.44Z" data-name="Path 145" transform="translate(83.549 38.55)"/><path id="Path_146" fill="#0b4870" d="M442.433,456.055,423.57,441.242l3.258-4.142,15.249,11.964,33.018-31.8,3.654,3.8Z" data-name="Path 146" transform="translate(86.345 39.929)"/><path id="Path_147" fill="#0b4870" d="M660.073,426.48H478.39a2.151,2.151,0,0,1-2.15-2.15h0a2.151,2.151,0,0,1,2.15-2.15H660.073a2.151,2.151,0,0,1,2.15,2.15h0A2.151,2.151,0,0,1,660.073,426.48Z" data-name="Path 147" transform="translate(103.153 41.499)"/><path id="Path_148" fill="#0b4870" d="M660.073,433.66H478.39a2.151,2.151,0,0,1-2.15-2.15h0a2.151,2.151,0,0,1,2.15-2.15H660.073a2.151,2.151,0,0,1,2.15,2.15h0A2.151,2.151,0,0,1,660.073,433.66Z" data-name="Path 148" transform="translate(103.153 43.79)"/><path id="Path_149" fill="#0b4870" d="M660.073,440.83H478.39a2.151,2.151,0,0,1-2.15-2.15h0a2.151,2.151,0,0,1,2.15-2.15H660.073a2.151,2.151,0,0,1,2.15,2.15h0A2.151,2.151,0,0,1,660.073,440.83Z" data-name="Path 149" transform="translate(103.153 46.078)"/><path id="Path_150" fill="#0b4870" d="M660.073,448.01H478.39a2.151,2.151,0,0,1-2.15-2.15h0a2.151,2.151,0,0,1,2.15-2.15H660.073a2.151,2.151,0,0,1,2.15,2.15h0A2.151,2.151,0,0,1,660.073,448.01Z" data-name="Path 150" transform="translate(103.153 48.37)"/><path id="Path_151" fill="#0b4870" d="M471.888,538.068H414.81V480.99h57.078Zm-55.759-1.319h54.44v-54.44h-54.44Z" data-name="Path 151" transform="translate(83.549 60.266)"/><path id="Path_152" fill="#0b4870" d="M442.433,524.105,423.57,509.292l3.258-4.142,15.249,11.964,33.018-31.8,3.654,3.8Z" data-name="Path 152" transform="translate(86.345 61.645)"/><path id="Path_153" fill="#0b4870" d="M660.073,494.53H478.39a2.151,2.151,0,0,1-2.15-2.15h0a2.151,2.151,0,0,1,2.15-2.15H660.073a2.151,2.151,0,0,1,2.15,2.15h0A2.151,2.151,0,0,1,660.073,494.53Z" data-name="Path 153" transform="translate(103.153 63.215)"/><path id="Path_154" fill="#0b4870" d="M660.073,501.71H478.39a2.151,2.151,0,0,1-2.15-2.15h0a2.151,2.151,0,0,1,2.15-2.15H660.073a2.151,2.151,0,0,1,2.15,2.15h0A2.151,2.151,0,0,1,660.073,501.71Z" data-name="Path 154" transform="translate(103.153 65.507)"/><path id="Path_155" fill="#0b4870" d="M660.073,508.88H478.39a2.151,2.151,0,0,1-2.15-2.15h0a2.151,2.151,0,0,1,2.15-2.15H660.073a2.151,2.151,0,0,1,2.15,2.15h0A2.151,2.151,0,0,1,660.073,508.88Z" data-name="Path 155" transform="translate(103.153 67.795)"/><path id="Path_156" fill="#0b4870" d="M660.073,516.06H478.39a2.151,2.151,0,0,1-2.15-2.15h0a2.151,2.151,0,0,1,2.15-2.15H660.073a2.151,2.151,0,0,1,2.15,2.15h0A2.151,2.151,0,0,1,660.073,516.06Z" data-name="Path 156" transform="translate(103.153 70.086)"/><path id="Path_157" fill="#0b4870" d="M471.888,606.118H414.81V549.04h57.078ZM416.129,604.8h54.44v-54.44h-54.44Z" data-name="Path 157" transform="translate(83.549 81.983)"/><path id="Path_158" fill="#0b4870" d="M442.433,592.155,423.57,577.342l3.258-4.142,15.249,11.964,33.018-31.8,3.654,3.8Z" data-name="Path 158" transform="translate(86.345 83.361)"/><path id="Path_159" fill="#0b4870" d="M660.073,562.58H478.39a2.151,2.151,0,0,1-2.15-2.15h0a2.151,2.151,0,0,1,2.15-2.15H660.073a2.151,2.151,0,0,1,2.15,2.15h0A2.151,2.151,0,0,1,660.073,562.58Z" data-name="Path 159" transform="translate(103.153 84.931)"/><path id="Path_160" fill="#0b4870" d="M660.073,569.76H478.39a2.151,2.151,0,0,1-2.15-2.15h0a2.151,2.151,0,0,1,2.15-2.15H660.073a2.151,2.151,0,0,1,2.15,2.15h0A2.151,2.151,0,0,1,660.073,569.76Z" data-name="Path 160" transform="translate(103.153 87.223)"/><path id="Path_161" fill="#0b4870" d="M660.073,576.93H478.39a2.151,2.151,0,0,1-2.15-2.15h0a2.151,2.151,0,0,1,2.15-2.15H660.073a2.15,2.15,0,0,1,2.15,2.15h0A2.151,2.151,0,0,1,660.073,576.93Z" data-name="Path 161" transform="translate(103.153 89.511)"/><path id="Path_162" fill="#0b4870" d="M660.073,584.11H478.39a2.15,2.15,0,0,1-2.15-2.15h0a2.151,2.151,0,0,1,2.15-2.15H660.073a2.151,2.151,0,0,1,2.15,2.15h0A2.15,2.15,0,0,1,660.073,584.11Z" data-name="Path 162" transform="translate(103.153 91.802)"/><path id="Path_163" fill="#0b4870" d="M471.888,674.168H414.81V617.09h57.078Zm-55.759-1.319h54.44v-54.44h-54.44Z" data-name="Path 163" transform="translate(83.549 103.699)"/><path id="Path_164" fill="#0b4870" d="M442.433,660.205,423.57,645.392l3.258-4.142,15.249,11.964,33.018-31.8,3.654,3.8Z" data-name="Path 164" transform="translate(86.345 105.077)"/><path id="Path_165" fill="#0b4870" d="M660.073,630.63H478.39a2.151,2.151,0,0,1-2.15-2.15h0a2.151,2.151,0,0,1,2.15-2.15H660.073a2.151,2.151,0,0,1,2.15,2.15h0A2.151,2.151,0,0,1,660.073,630.63Z" data-name="Path 165" transform="translate(103.153 106.647)"/><path id="Path_166" fill="#0b4870" d="M660.073,637.81H478.39a2.151,2.151,0,0,1-2.15-2.15h0a2.151,2.151,0,0,1,2.15-2.15H660.073a2.151,2.151,0,0,1,2.15,2.15h0A2.151,2.151,0,0,1,660.073,637.81Z" data-name="Path 166" transform="translate(103.153 108.939)"/><path id="Path_167" fill="#0b4870" d="M660.073,644.98H478.39a2.151,2.151,0,0,1-2.15-2.15h0a2.151,2.151,0,0,1,2.15-2.15H660.073a2.15,2.15,0,0,1,2.15,2.15h0A2.151,2.151,0,0,1,660.073,644.98Z" data-name="Path 167" transform="translate(103.153 111.227)"/><path id="Path_168" fill="#0b4870" d="M660.073,652.16H478.39a2.151,2.151,0,0,1-2.15-2.15h0a2.151,2.151,0,0,1,2.15-2.15H660.073a2.151,2.151,0,0,1,2.15,2.15h0A2.151,2.151,0,0,1,660.073,652.16Z" data-name="Path 168" transform="translate(103.153 113.518)"/><path id="Path_169" fill="#fab9af" d="M624.832,584.829c2.955-2.1,5.672-4.525,6.925-5.237a21.06,21.06,0,0,1,2.625-.8c1.372-.409,3.562-.831,4.511-1.9l4.063-4.459c1.926-2.19,4.445-2.915,6.622-.989h0c2.361,2.084,1.662,5.052-.686,7.163l-2.783,3.166c-1.873,1.688-2.81,4.063-3.852,6.358-2.11,4.683-6.9,8.2-10.988,10.672-2.572,1.543-6.464.449-11.569-1.293-2.506-.857-6.134-2.928-3.008-4.1,2.625-.976,10.513,1.148,14-6.121.172-.356.541-1.306.185-1.636-1.055-.989-3.39,1.253-4.947,1.966-2.19,1-3.944.66-4.485-.145C620.861,586.623,622.721,586.333,624.832,584.829Z" data-name="Path 169" transform="translate(147.588 88.775)"/><path id="Path_170" fill="#030047" d="M729.718,463.064s-6.516,78.224-29.9,104.62c-14.088,15.909-48.557,43.188-56.538,49.441a2.95,2.95,0,0,1-3.5.092,25.8,25.8,0,0,1-2.1-1.636,24.094,24.094,0,0,1-2.15-2.269,3.525,3.525,0,0,1,.106-4.683c8.944-9.722,44.032-48.253,48.306-58.384,4.894-11.622,13.323-80.229,21.066-90.162C712.754,450.123,727.594,447.973,729.718,463.064Z" data-name="Path 170" transform="translate(153.719 51.071)"/><path id="Path_171" fill="#fab9af" d="M684.34,594.068l19.945-140.091,53.781-7.387,27.979,146.475Z" data-name="Path 171" transform="translate(169.562 49.288)"/><path id="Path_172" fill="#fab9af" d="M725.27,724.135l-.053,15.79a34.442,34.442,0,0,0,1.293,9.5l1.372,4.868a6.242,6.242,0,0,1-6.028,7.941c-10.751-.04-29.139-.013-33.875,0a1.543,1.543,0,0,1-1.6-1.293c-.4-4.6,12.914-7.7,22.953-11.582,7.638-2.955,7.229-16.687,6.292-24.707a4.828,4.828,0,0,1,5.211-5.356h0A4.843,4.843,0,0,1,725.27,724.135Z" data-name="Path 172" transform="translate(170.211 136.309)"/><path id="Path_173" fill="#fab9af" d="M778.547,720.534l5.435,18.059a7.8,7.8,0,0,0,1.069,2.242l3.852,5.725a6.517,6.517,0,0,1-3.509,9.88s-7.783,2.731-15.79,5.369c-8.2,2.691-18.534.449-18.534-1.728,0-4.815,4.485-.989,12-6.015,2.519-1.689,5.118-3.443,7.44-5.263,6.464-5.079.818-17.927-3.14-25.169a4.436,4.436,0,0,1,2.994-6.45l1.873-.4A5.447,5.447,0,0,1,778.547,720.534Z" data-name="Path 173" transform="translate(190.857 135.478)"/><path id="Path_174" fill="#0b4870" d="M744.477,560.629l-59.611-5s-6,43.386,9.062,121.913c7.07,36.83,21.792,107.205,21.792,107.205a16.934,16.934,0,0,0,11.133,1.055s1.121-31.039,1.807-64.479c.66-32.055.831-66.312,2.876-77.525C735.7,620.9,744.477,560.629,744.477,560.629Z" data-name="Path 174" transform="translate(169.353 84.085)"/><path id="Path_175" fill="#0b4870" d="M722.64,563.487c-6.16,33.031-19.906,82.419,6.582,128.812s54.3,94.634,54.3,94.634a15.042,15.042,0,0,0,9.854-3.443s-4.643-21.027-11.358-45.589c-7.677-28.1-17.4-61.141-14.629-78.369,5.2-32.292,11.16-75.3,9.353-96.19S725.871,546.127,722.64,563.487Z" data-name="Path 175" transform="translate(178.883 81.98)"/><path id="Path_176" fill="#f2f2f2" d="M682.8,590.506l22-136.529,53.794-7.387,28.9,144.167a4.961,4.961,0,0,1-3.931,5.857,344.432,344.432,0,0,1-61.207,5.857c-20.183,0-31.527-3.918-36.685-6.411A5.221,5.221,0,0,1,682.8,590.506Z" data-name="Path 176" transform="translate(169.048 49.288)"/><path id="Path_177" fill="#fab9af" d="M763.776,602.139c.818-3.522,1.266-7.15,1.728-8.508a20.923,20.923,0,0,1,1.438-2.348c.765-1.214,2.124-2.981,2.124-4.406l.106-6.028c0-2.915,1.411-5.118,4.314-5.118h0c3.153,0,4.59,2.691,4.221,5.831v4.221c-.29,2.506.58,4.907,1.319,7.321,1.5,4.907.251,10.711-1.187,15.275-.9,2.862-4.551,4.617-9.524,6.675-2.44,1.016-6.543,1.86-4.973-1.082,1.319-2.467,8.64-6.081,6.451-13.851-.106-.383-.449-1.346-.937-1.359-1.451-.04-1.715,3.179-2.414,4.749-.976,2.2-2.52,3.1-3.469,2.862C761.982,606.109,763.182,604.658,763.776,602.139Z" data-name="Path 177" transform="translate(194.535 90.5)"/><path id="Path_178" fill="#030047" d="M727.5,454.907a84.611,84.611,0,0,0,5.145,28.823c6.569,18.085,16.436,52.277,10.566,82.405-8.429,43.386-19.286,60.917-5.224,71.035s41.025-6.754,41.8-12.387-5.25-74.7-12.07-104.633-25.96-72.961-25.96-72.961l-8.1.871a6.878,6.878,0,0,0-6.16,6.846Z" data-name="Path 178" transform="translate(183.335 49.48)"/><path id="Path_179" fill="#030047" d="M751.633,450.32s46.855,62.988,46.763,98.248c-.053,21.251-7.862,64.505-9.709,74.478a2.912,2.912,0,0,1-2.559,2.374,24.667,24.667,0,0,1-2.651.158,25.367,25.367,0,0,1-3.113-.277,3.531,3.531,0,0,1-3.021-3.588c.277-13.2,1.121-65.31-2.388-75.744-4.023-11.964-43.069-68.977-43.834-81.561S740.064,440.4,751.633,450.32Z" data-name="Path 179" transform="translate(184.477 49.278)"/><path id="Path_180" fill="#030047" d="M722.388,450.67s-9.326,20.156-6.081,49.124,10.79,117.178-15.566,130.5c-8.35,4.221-27.411-14.458-27.411-21.4s6.358-30.129,12.387-51.222,20.552-104.8,20.552-104.8Z" data-name="Path 180" transform="translate(166.049 50.59)"/><path id="Path_181" fill="#fab9af" d="M721.812,403.3c12,0,16.489,8.548,16.713,24.351.092,5.923-2.572,11.78-4.722,15.526a11.712,11.712,0,0,0-1.121,9.155l2.638,8.917c1.794,8.271-2.137,12.822-7.941,14.471a11.26,11.26,0,0,1-8.825-1.438c-2.981-1.926-3.232-6.081-2.678-9.59l.686-2.546a6.318,6.318,0,0,0-4.538-7.875c-9.247-2.018-10.566-11.661-13.046-26.62C696.393,412.059,709.808,403.3,721.812,403.3Z" data-name="Path 181" transform="translate(174.13 35.474)"/><path id="Path_182" d="M696.635,398.484l6.886,2.1a13.664,13.664,0,0,0,7.77.053l13.745-3.984c8.324,0,22.082,4.7,20.341,16.713l-1.53,8.5a7.625,7.625,0,0,1-6.886,6.226h0a2.691,2.691,0,0,1-5.29-.7h0a8.164,8.164,0,0,0-6.424-7.941,29.977,29.977,0,0,0-14.616.105c-9.55,2.572-19.628-3.351-20.578-13.2a17.94,17.94,0,0,1-.092-1.9C689.947,400.462,693.231,397.547,696.635,398.484Z" data-name="Path 182" transform="translate(171.355 33.351)"/><path id="Path_183" fill="#fab9af" d="M723.87,423.585c0,3.667,1.359,6.635,4.894,6.635s5.791-5.039,5.791-8.706-2.269-4.564-5.791-4.564S723.87,419.931,723.87,423.585Z" data-name="Path 183" transform="translate(182.177 39.83)"/><path id="Path_184" fill="#e8948b" d="M729.837,434.18s-8.97,12.321-20.117,10.659c0,0,2.322,1.108,2.876,2.9C712.6,447.741,723.188,446.962,729.837,434.18Z" data-name="Path 184" transform="translate(177.661 45.328)"/><path id="Path_185" fill="#f2f2f2" d="M785.319,307.693c0,8.561-5.646,15.513-12.624,15.513H623.014c-6.965,0-12.624-6.939-12.624-15.513h0c0-8.561,5.646-15.513,12.624-15.513H772.695c6.978.013,12.624,6.952,12.624,15.513Z" data-name="Path 185" transform="translate(145.963 0.013)"/><path id="Path_186" fill="#f2f2f2" d="M388.828,370.653a15.513,15.513,0,0,1-15.513,15.513H189.4a15.513,15.513,0,0,1-15.513-15.513h0A15.513,15.513,0,0,1,189.4,355.14H373.328a15.5,15.5,0,0,1,15.5,15.513Z" data-name="Path 186" transform="translate(6.667 20.105)"/><path id="Path_187" fill="#f2f2f2" d="M436.857,307.653c0,8.561-5.751,15.513-12.835,15.513H271.835c-7.084,0-12.835-6.939-12.835-15.513h0c0-8.561,5.751-15.513,12.835-15.513H424.022c7.084,0,12.835,6.939,12.835,15.513Z" data-name="Path 187" transform="translate(33.827)"/><path id="Path_188" fill="#f2f2f2" d="M919.218,358.613A15.513,15.513,0,0,1,903.7,374.126H719.793a15.513,15.513,0,0,1-15.513-15.513h0A15.513,15.513,0,0,1,719.793,343.1H903.718a15.518,15.518,0,0,1,15.5,15.513Z" data-name="Path 188" transform="translate(175.925 16.262)"/><path id="Path_189" fill="#0b4870" d="M727.562,743.565a17.035,17.035,0,0,1-16.106-2.045s-19.18,3.073-24.681,8.746-1.517,8.482,5.4,8.363,33.572-.4,33.572-.4S732.588,754.052,727.562,743.565Z" data-name="Path 189" transform="translate(169.515 143.407)"/><path id="Path_190" fill="#0b4870" d="M787.076,736.01s-4.063,5.343-13.165,2.177c0,0-20.235,9.247-23.81,16.291s1.055,8.548,7.625,6.4,31.949-10.3,31.949-10.3S794.977,744.531,787.076,736.01Z" data-name="Path 190" transform="translate(190.151 141.648)"/></g></g></svg>